# xmcd
#
# Track frame offsets: 
#        150
#        13865
#        37020
#        49915
#        66005
#        112190
#        124547
#        137630
#        162685
#        182370
#        206842
#        219742
#        242912
#        252252
#        281247
#        305402
#
# Disc length: 4356 seconds
#
# Revision: 2
# Processed by: cddbd v1.5.2PL0 Copyright (c) Steve Scherf et al.
# Submitted via: ExactAudioCopyFreeDBPlugin 1.0
#
DISCID=fb110210
DTITLE=Hooker, John Lee - The Best of John Lee Hooker
DYEAR=1992
DGENRE=Blues
TTITLE0=One Bourbon, One Scotch, One Beer
TTITLE1=Decoration Day
TTITLE2=Back Biters and Syndicators
TTITLE3=Doin' The Shout
TTITLE4=Never Get Out Of These Blues Alive
TTITLE5=I'm In The Mood
TTITLE6=Mr. Lucky
TTITLE7=I'm Bad Like Jesse James
TTITLE8=Shake It Baby
TTITLE9=Bluebird
TTITLE10=The Motor City Is Burning
TTITLE11=It Serves You Right To Suffer
TTITLE12=Think Twice Before You Go
TTITLE13=House Rent Boogie
TTITLE14=The Waterfront
TTITLE15=Bang, Bang, Bang, Bang
EXTD=
EXTT0=
EXTT1=
EXTT2=
EXTT3=
EXTT4=
EXTT5=
EXTT6=
EXTT7=
EXTT8=
EXTT9=
EXTT10=
EXTT11=
EXTT12=
EXTT13=
EXTT14=
EXTT15=
PLAYORDER=
